<svg width="17" height="16" viewBox="0 0 17 16" fill="none" xmlns="http://www.w3.org/2000/svg">
<path d="M6.98713 0.0390316C5.75108 0.21401 4.6867 0.601461 3.7066 1.22638C3.20407 1.54822 2.87008 1.81381 2.41437 2.2575C1.29068 3.34799 0.535319 4.6947 0.182608 6.22575C0.101453 6.58821 0.0078125 7.2225 0.0078125 7.43185V7.55371H1.1471H2.28327L2.29888 7.4506C2.30824 7.39748 2.33009 7.24437 2.34882 7.11627C2.36755 6.98816 2.41749 6.74131 2.46431 6.56946C3.02615 4.41348 4.78659 2.77619 6.99338 2.36061C7.29303 2.30437 7.47094 2.29187 7.99845 2.29187C8.74757 2.28875 9.14086 2.34812 9.76201 2.55746C10.4019 2.76994 10.8701 3.01366 11.4038 3.41361L11.7066 3.63858L12.5244 2.81993C13.2922 2.04815 13.3359 2.00128 13.2798 1.95754C13.2454 1.93254 13.1206 1.83568 13.0051 1.73882C11.9501 0.8858 10.6953 0.323371 9.29693 0.0827761C8.80063 -0.0047129 7.46158 -0.0297098 6.98713 0.0390316Z" fill="white" fill-opacity="0.75"/>
<path d="M13.1616 3.47077C12.7308 3.90197 12.375 4.26755 12.375 4.28317C12.375 4.29567 12.4718 4.43315 12.5904 4.58938C12.709 4.74561 12.8713 4.98933 12.9524 5.13306C13.0929 5.38615 13.1023 5.39553 13.1803 5.36428C13.455 5.25805 15.1748 4.54251 15.1967 4.52064C15.2841 4.44252 14.1261 2.68649 13.9825 2.68025C13.9638 2.68025 13.5954 3.03645 13.1616 3.47077Z" fill="white" fill-opacity="0.75"/>
<path d="M7.37636 3.21373C6.78955 3.29185 6.06227 3.54182 5.5691 3.82928C4.59836 4.39796 3.81803 5.34471 3.45908 6.38833C3.2437 7.00076 3.20312 7.26947 3.20312 8.00688C3.20625 8.56306 3.21561 8.70992 3.27492 8.96926C3.72127 10.9815 5.25697 12.4438 7.25775 12.7625C7.65416 12.825 8.60929 12.8032 8.962 12.725C10.8879 12.2938 12.2862 10.894 12.7139 8.96926C12.7732 8.70992 12.7825 8.56306 12.7856 8.00688C12.7856 7.26947 12.7419 6.99763 12.5328 6.38833C11.9772 4.79791 10.6069 3.61056 8.93391 3.26998C8.5812 3.19811 7.72283 3.16686 7.37636 3.21373ZM6.34007 5.88215V6.33521H5.88748H5.43488V5.88215V5.42908H5.88748H6.34007V5.88215ZM10.6163 5.88215V6.33521H9.05564H7.49497V5.88215V5.42908H9.05564H10.6163V5.88215ZM6.34007 8.00688V8.45995H5.88748H5.43488V8.00688V7.55381H5.88748H6.34007V8.00688ZM10.6163 8.00688V8.45995H9.05564H7.49497V8.00688V7.55381H9.05564H10.6163V8.00688ZM6.34007 10.1004V10.5534H5.88748H5.43488V10.1004V9.6473H5.88748H6.34007V10.1004ZM10.6163 10.1004V10.5534H9.05564H7.49497V10.1004V9.6473H9.05564H10.6163V10.1004Z" fill="white" fill-opacity="0.75"/>
<path d="M14.4964 5.79143C13.9408 6.02265 13.4788 6.2195 13.4694 6.22575C13.4632 6.23513 13.5006 6.41948 13.5537 6.6382C13.6068 6.86005 13.6598 7.11627 13.6692 7.21C13.6786 7.30374 13.6942 7.41935 13.7035 7.46622L13.7223 7.55371H14.8615H16.004L15.9821 7.26937C15.9571 6.95691 15.8666 6.39761 15.7917 6.10077C15.6887 5.69769 15.5763 5.36649 15.5451 5.36649C15.5264 5.36961 15.0551 5.56021 14.4964 5.79143Z" fill="white" fill-opacity="0.75"/>
<path d="M0.0218494 8.72592C0.143582 10.2382 0.783457 11.813 1.77604 13.0535C2.03824 13.3785 2.59696 13.9409 2.91221 14.1971C3.23371 14.4596 3.77682 14.8283 4.11393 15.0126C5.07842 15.5469 6.25829 15.9094 7.26024 15.9813L7.5318 16V14.8564V13.7128L7.3851 13.694C6.77331 13.6159 6.06789 13.4128 5.54975 13.166C3.87983 12.3723 2.64378 10.735 2.36598 8.94464C2.33476 8.75404 2.30667 8.56969 2.30043 8.52907L2.28794 8.46032H1.14241H0L0.0218494 8.72592Z" fill="white" fill-opacity="0.75"/>
<path d="M13.7001 8.52912C13.6939 8.56974 13.6658 8.75409 13.6346 8.94469C13.5003 9.80396 13.1258 10.682 12.5795 11.4131C12.4797 11.5475 12.3891 11.6756 12.3829 11.6943C12.3767 11.71 12.7325 12.088 13.1757 12.5317L13.981 13.3379L14.1246 13.1723C14.9455 12.2037 15.5604 10.9538 15.832 9.6946C15.9006 9.38526 15.9912 8.73847 15.9912 8.56662V8.46038H14.8519H13.7126L13.7001 8.52912Z" fill="white" fill-opacity="0.75"/>
<path d="M11.4496 12.5532C10.8659 13.0031 10.198 13.3312 9.48319 13.5218C9.20851 13.5968 8.61233 13.7093 8.49372 13.7093C8.47811 13.7093 8.46875 14.2217 8.46875 14.8498V15.9902H8.60297C8.99626 15.9902 9.84526 15.8278 10.429 15.6403C11.4028 15.3278 12.333 14.8216 13.0977 14.1842L13.3443 13.9811L12.5359 13.1718C12.0926 12.7281 11.7243 12.3657 11.7149 12.3657C11.7056 12.3657 11.587 12.4501 11.4496 12.5532Z" fill="white" fill-opacity="0.75"/>
</svg>
