<svg width="16" height="15" viewBox="0 0 16 15" fill="none" xmlns="http://www.w3.org/2000/svg">
<path d="M3.39696 0.46875V0.9375H2.59674C1.98064 0.9375 1.74695 0.95 1.57699 0.9875C0.858209 1.15 0.238569 1.69687 0.0544479 2.33125C-0.0163681 2.57812 -0.0199089 3.04375 0.0544479 3.29062C0.24211 3.93125 0.798016 4.43125 1.55575 4.64062C1.708 4.68125 1.93107 4.69687 2.56841 4.70937L3.38634 4.725L3.40758 5.02812C3.52089 6.6375 4.76371 8.05937 6.51286 8.575C7.02628 8.725 7.42285 8.78125 8 8.78125C8.57715 8.78125 8.97372 8.725 9.48714 8.575C11.2363 8.05937 12.4791 6.6375 12.5924 5.02812L12.6137 4.725L13.4316 4.7125C14.2283 4.7 14.2566 4.69687 14.5505 4.60625C14.7169 4.55312 14.9435 4.45937 15.0533 4.39375C15.4782 4.14687 15.8181 3.72187 15.9456 3.29062C16.0199 3.04375 16.0164 2.57812 15.9456 2.33125C15.7614 1.69687 15.1418 1.15 14.423 0.9875C14.2531 0.95 14.0194 0.9375 13.4033 0.9375H12.603V0.46875V-1.30851e-07H8H3.39696V0.46875ZM3.39696 2.81562V3.75625L2.64631 3.74375C1.90274 3.73437 1.88858 3.73437 1.6903 3.64687C0.766148 3.24687 0.960892 2.05937 1.9771 1.90625C2.06562 1.89375 2.42324 1.88125 2.77024 1.87812L3.39696 1.875V2.81562ZM14.3239 2C14.7346 2.18437 14.9293 2.48125 14.8975 2.88125C14.8727 3.22812 14.6425 3.51562 14.2743 3.66562C14.1256 3.72187 14.0264 3.73125 13.3572 3.74375L12.603 3.75625V2.8125V1.86875L13.3431 1.88125L14.0831 1.89062L14.3239 2Z" fill="white" fill-opacity="0.75"/>
<path d="M6.1197 8.79922C6.1197 8.81484 6.03827 9.22422 5.94266 9.71484C5.84706 10.2055 5.76562 10.6148 5.76562 10.6273C5.76562 10.643 6.77121 10.6523 7.99633 10.6523C9.22499 10.6523 10.227 10.643 10.227 10.6305C10.227 10.5867 9.86587 8.79297 9.85525 8.78359C9.84817 8.77734 9.73486 8.79922 9.60031 8.83359C9.01254 8.98359 8.63721 9.03047 7.99633 9.03047C7.42626 9.03047 6.99428 8.98047 6.49149 8.85547C6.14095 8.77109 6.1197 8.76797 6.1197 8.79922Z" fill="white" fill-opacity="0.75"/>
<path d="M2.82786 12.0742V13.4961H2.29674H1.76562V13.9648V14.4336H7.99743H14.2292V13.9648V13.4961H13.6981H13.167V12.0742V10.6523H7.99743H2.82786V12.0742ZM9.94487 12.0742V12.5273H7.99743H6.04999V12.0742V11.6211H7.99743H9.94487V12.0742Z" fill="white" fill-opacity="0.75"/>
</svg>
