<svg width="16" height="16" viewBox="0 0 16 16" fill="none" xmlns="http://www.w3.org/2000/svg">
<path d="M2.7145 0.310706C2.6467 0.583473 2.62732 0.624906 2.55629 0.642169C2.51108 0.65598 2.36901 0.714677 2.24631 0.776826L2.01706 0.890767L1.76521 0.735393L1.51335 0.58002L1.28733 0.825165L1.05808 1.06686L1.20338 1.33617L1.34868 1.60548L1.24213 1.85063C1.18401 1.98183 1.12912 2.13375 1.1162 2.18554C1.09683 2.26496 1.06454 2.28222 0.806226 2.35473L0.515625 2.43414L0.525312 2.77942L0.534998 3.12124L0.802997 3.1972C0.948297 3.23863 1.07422 3.28006 1.08068 3.28697C1.08714 3.29387 1.14526 3.44579 1.21307 3.62534C1.34868 3.98787 1.35191 3.93954 1.14203 4.3297L1.05485 4.49543L1.28087 4.73367L1.50367 4.97536L1.76198 4.81653L2.01706 4.66116L2.23017 4.76129C2.34641 4.81999 2.48525 4.87868 2.53692 4.89595C2.6241 4.92702 2.64024 4.95464 2.71128 5.23086L2.792 5.53125L3.11489 5.52089L3.43778 5.51053L3.50559 5.23777C3.54433 5.08585 3.59599 4.95119 3.62183 4.93738C3.64766 4.92357 3.78973 4.85451 3.94149 4.78891L4.21594 4.66461L4.45811 4.81653L4.70028 4.96845L4.92953 4.72676L5.15878 4.48507L5.01994 4.21921L4.87787 3.95335L4.99088 3.68058C5.05223 3.52866 5.10389 3.3871 5.10389 3.36293C5.10389 3.30423 5.15232 3.28006 5.42678 3.1972L5.66895 3.12469L5.67863 2.77942L5.68832 2.43414L5.40741 2.34782C5.14909 2.27186 5.12326 2.2546 5.0942 2.16138C5.07806 2.10268 5.02317 1.95766 4.96828 1.83336L4.87464 1.60548L5.01994 1.33272L5.16847 1.0565L4.95213 0.825165C4.83266 0.69396 4.72288 0.590378 4.71319 0.590378C4.70028 0.590378 4.58404 0.65598 4.45488 0.735393C4.23855 0.87005 4.21594 0.876956 4.1223 0.835523C4.06741 0.811354 3.92857 0.752657 3.81233 0.704319C3.69609 0.659433 3.59922 0.614547 3.59277 0.607642C3.58631 0.600736 3.54756 0.46608 3.50881 0.307253L3.43455 0.020676L3.11489 0.0103178L2.792 -4.04567e-05L2.7145 0.310706ZM3.57339 1.49154C4.25792 1.76776 4.58727 2.63785 4.27729 3.35257C3.93826 4.12944 3.03094 4.38494 2.36578 3.8981C1.97509 3.61153 1.74906 3.02456 1.8427 2.53427C1.94603 1.98874 2.31735 1.57096 2.82752 1.43285C3.03094 1.37415 3.34091 1.39832 3.57339 1.49154Z" fill="white" fill-opacity="0.75"/>
<path d="M8.26679 1.42943C8.10857 1.48467 7.83734 1.78161 7.78891 1.9577C7.76631 2.03711 7.75016 2.18903 7.75016 2.29606V2.48942H6.97523H6.20029V2.76564V3.04186H6.97523H7.75016V3.23521C7.75016 3.34225 7.76631 3.49417 7.78891 3.57358C7.84057 3.76348 8.10857 4.05006 8.28616 4.1053C8.47667 4.164 12.7065 4.164 12.897 4.1053C13.0746 4.05006 13.3426 3.76348 13.3943 3.57358C13.4169 3.49417 13.433 3.34225 13.433 3.23176V3.03495L13.9755 3.04876C14.5018 3.05912 14.5179 3.06257 14.731 3.16961C15.0313 3.32153 15.2186 3.51488 15.3639 3.82908L15.4834 4.09149V5.38972V6.68795L15.3639 6.95036C15.2186 7.26456 15.0313 7.45791 14.731 7.60983L14.5147 7.72032L12.6839 7.73068L10.8499 7.74104V7.54423C10.8499 7.4372 10.8338 7.28528 10.8112 7.20586C10.7595 7.01596 10.4915 6.72938 10.3139 6.67414C10.2138 6.64307 9.6197 6.63271 8.00848 6.63271C6.39726 6.63271 5.80314 6.64307 5.70304 6.67414C5.52545 6.72938 5.25745 7.01596 5.20579 7.20586C5.18319 7.28528 5.16705 7.4372 5.16705 7.54423V7.73758H3.41375C2.30947 7.73758 1.58943 7.7514 1.46673 7.77556C0.782201 7.90677 0.159023 8.57315 0.0363251 9.30513C-0.0121084 9.5779 -0.0121084 11.9741 0.0363251 12.2469C0.117048 12.7406 0.481913 13.2896 0.888754 13.5382C1.2407 13.7557 1.386 13.7868 2.01241 13.8075L2.58393 13.8213V14.0112C2.58393 14.1182 2.60007 14.2667 2.62267 14.3461C2.67434 14.536 2.94233 14.8226 3.11992 14.8779C3.31043 14.9365 7.54029 14.9365 7.73079 14.8779C7.90838 14.8226 8.17638 14.536 8.22804 14.3461C8.25064 14.2667 8.26679 14.1148 8.26679 14.0078V13.8144H9.30004H10.3333V13.5382V13.262H9.30004H8.26679V13.0686C8.26679 12.9616 8.25064 12.8097 8.22804 12.7302C8.17638 12.5403 7.90838 12.2538 7.73079 12.1985C7.54029 12.1398 3.31043 12.1398 3.11992 12.1985C2.94233 12.2538 2.67434 12.5403 2.62267 12.7302C2.60007 12.8097 2.58393 12.9616 2.58393 13.0721V13.2689L2.04147 13.2551C1.51516 13.2447 1.49902 13.2413 1.28591 13.1342C0.985621 12.9823 0.798345 12.7889 0.653045 12.4747L0.533575 12.2123V10.776V9.33966L0.653045 9.07725C0.798345 8.76305 0.985621 8.5697 1.28591 8.41777L1.50225 8.30729L3.33626 8.29693L5.16705 8.28657V8.48338C5.16705 8.59041 5.18319 8.74233 5.20579 8.82175C5.25745 9.01165 5.52545 9.29822 5.70304 9.35347C5.89355 9.41216 10.1234 9.41216 10.3139 9.35347C10.4915 9.29822 10.7595 9.01165 10.8112 8.82175C10.8338 8.74233 10.8499 8.59386 10.8499 8.48683V8.29348L12.7162 8.28312L14.5793 8.27276L14.7924 8.18299C15.1024 8.05524 15.2703 7.9413 15.4801 7.71687C15.6771 7.50625 15.8418 7.21277 15.9387 6.90893C15.9935 6.73629 16 6.59473 16 5.38972C16 4.18126 15.9935 4.04315 15.9387 3.87051C15.7675 3.32843 15.4446 2.92446 15.0055 2.70004C14.6697 2.5274 14.4695 2.48942 13.8948 2.48942H13.433V2.29606C13.433 2.01639 13.3749 1.85066 13.2167 1.66076C12.9745 1.37418 13.0843 1.38454 10.5787 1.38799C9.07401 1.39145 8.34428 1.40526 8.26679 1.42943ZM9.30004 2.76564V3.04186H9.04172H8.78341V2.76564V2.48942H9.04172H9.30004V2.76564ZM10.3333 2.76564V3.04186H10.075H9.81666V2.76564V2.48942H10.075H10.3333V2.76564ZM11.3665 2.76564V3.04186H11.1082H10.8499V2.76564V2.48942H11.1082H11.3665V2.76564ZM12.3998 2.76564V3.04186H12.1415H11.8832V2.76564V2.48942H12.1415H12.3998V2.76564ZM6.71692 8.0138V8.29002H6.4586H6.20029V8.0138V7.73758H6.4586H6.71692V8.0138ZM7.75016 8.0138V8.29002H7.49185H7.23354V8.0138V7.73758H7.49185H7.75016V8.0138ZM8.78341 8.0138V8.29002H8.5251H8.26679V8.0138V7.73758H8.5251H8.78341V8.0138ZM9.81666 8.0138V8.29002H9.55835H9.30004V8.0138V7.73758H9.55835H9.81666V8.0138ZM4.1338 13.5382V13.8144H3.87549H3.61717V13.5382V13.262H3.87549H4.1338V13.5382ZM5.16705 13.5382V13.8144H4.90873H4.65042V13.5382V13.262H4.90873H5.16705V13.5382ZM6.20029 13.5382V13.8144H5.94198H5.68367V13.5382V13.262H5.94198H6.20029V13.5382ZM7.23354 13.5382V13.8144H6.97523H6.71692V13.5382V13.262H6.97523H7.23354V13.5382Z" fill="white" fill-opacity="0.75"/>
<path d="M12.774 11.0868C12.3059 11.18 11.899 11.4113 11.5438 11.7911C11.2532 12.1019 11.0821 12.3953 10.9562 12.8062C10.8851 13.0375 10.8722 13.1308 10.8754 13.5382C10.8754 13.9491 10.8851 14.0354 10.9594 14.2805C11.0821 14.6776 11.2532 14.9676 11.5471 15.2818C11.8409 15.596 12.1121 15.779 12.4834 15.9102C12.7127 15.9896 12.7934 16 13.1777 16C13.5619 16 13.6426 15.9896 13.8719 15.9102C14.2432 15.779 14.5144 15.596 14.8082 15.2818C15.1021 14.9676 15.2732 14.6776 15.3959 14.2805C15.4702 14.0354 15.4799 13.9491 15.4799 13.5382C15.4799 13.1273 15.4702 13.041 15.3959 12.7959C15.2732 12.3988 15.1021 12.1088 14.8082 11.7946C14.3594 11.3112 13.8912 11.0937 13.2745 11.0695C13.0872 11.0626 12.8645 11.0695 12.774 11.0868ZM14.4724 12.423C14.5596 12.5162 14.6307 12.606 14.6307 12.6232C14.6307 12.6439 14.1302 13.1929 13.5167 13.8489L12.4027 15.0401L12.0637 14.6776C11.8764 14.4773 11.7246 14.3047 11.7246 14.2909C11.7246 14.2529 12.0282 13.918 12.0637 13.918C12.0798 13.918 12.1638 13.9905 12.2477 14.0803L12.4027 14.246L13.3326 13.2516C13.8428 12.7061 14.2723 12.2607 14.2852 12.2607C14.3013 12.2607 14.3853 12.3332 14.4724 12.423Z" fill="white" fill-opacity="0.75"/>
</svg>
