<svg width="16" height="16" viewBox="0 0 16 16" fill="none" xmlns="http://www.w3.org/2000/svg">
<path d="M7.36818 0.0311193C4.70029 0.249287 2.32579 1.76964 1.0089 4.10812C-0.0964702 6.07162 -0.30458 8.47487 0.439156 10.6259C0.834906 11.7644 1.42171 12.7087 2.28144 13.5882C4.68664 16.0528 8.39509 16.7005 11.4963 15.1971C13.1714 14.3824 14.5599 12.9507 15.3002 11.277C16.5216 8.51919 16.1258 5.40008 14.2563 3.02069C13.8162 2.46164 12.9428 1.67078 12.3321 1.28217C11.6532 0.849246 10.8105 0.47768 10.0634 0.283376C9.49704 0.133386 9.11835 0.0720263 8.5452 0.0277109C8.03345 -0.00978661 7.86628 -0.00978661 7.36818 0.0311193ZM8.26544 3.69565C8.41556 3.75701 8.56226 3.88995 8.64072 4.03312C8.6919 4.12175 8.70213 4.32629 8.71578 5.70347L8.73284 7.27154L10.3022 7.28859C12.0182 7.30563 11.9637 7.29881 12.1684 7.51698C12.4276 7.78969 12.4276 8.21921 12.1684 8.49191C11.9637 8.71008 12.0182 8.70326 10.3022 8.72031L8.73284 8.73735L8.71578 10.3054C8.69872 12.0201 8.70555 11.9655 8.4872 12.1701C8.21427 12.4291 7.7844 12.4291 7.51147 12.1701C7.29313 11.9655 7.29995 12.0201 7.28289 10.3054L7.26584 8.73735L5.69648 8.72031C3.98043 8.70326 4.03502 8.71008 3.83032 8.49191C3.57104 8.21921 3.57104 7.78969 3.83032 7.51698C4.03502 7.29881 3.98043 7.30563 5.69648 7.28859L7.26584 7.27154L7.28289 5.70347C7.29995 3.98881 7.29313 4.04335 7.51147 3.83882C7.71276 3.64792 8.0164 3.58997 8.26544 3.69565Z" fill="white" fill-opacity="0.75"/>
</svg>
