<svg width="16" height="16" viewBox="0 0 16 16" fill="none" xmlns="http://www.w3.org/2000/svg">
<path d="M7.05607 0.0204143C3.81123 0.25914 1.03384 2.58501 0.232018 5.72938C0.0614164 6.40463 0 6.89572 0 7.62554C0 8.73391 0.187661 9.65812 0.610752 10.6505C1.8152 13.4675 4.67106 15.3262 7.6907 15.2579L8.15815 15.2477L8.02167 15.026C7.13113 13.5835 7.02877 11.7384 7.75553 10.1935C7.92613 9.82864 8.26392 9.31708 8.54371 8.99651C10.1644 7.15491 12.935 6.73884 15.0231 8.02796L15.2449 8.16438L15.2552 7.69716C15.3063 5.45655 14.2896 3.24663 12.5221 1.77335C11.014 0.508098 9.03163 -0.126232 7.05607 0.0204143ZM7.83742 2.20646C7.90907 2.22692 8.03532 2.30536 8.11721 2.38039C8.37652 2.61912 8.3697 2.53727 8.3697 5.26215C8.3697 6.9878 8.35946 7.70739 8.32875 7.82334C8.27416 8.04161 8.03532 8.28033 7.81695 8.3349C7.70435 8.36218 7.15502 8.37582 5.9881 8.37582C4.07737 8.37582 4.07055 8.37582 3.83853 8.12345C3.61333 7.87791 3.5758 7.58803 3.72934 7.2845C3.80441 7.13445 3.96136 7.00485 4.13537 6.94688C4.21385 6.923 4.67789 6.90936 5.57525 6.90936H6.90253V4.83586V2.76576L6.98441 2.59183C7.06971 2.40767 7.2062 2.28831 7.41092 2.21669C7.56446 2.16213 7.66682 2.15872 7.83742 2.20646Z" fill="white"/>
<path d="M11.9445 8.75133C11.4054 8.81953 10.7844 9.04803 10.3238 9.35496C10.0372 9.54253 9.59706 9.97906 9.39233 10.2724C8.50521 11.5512 8.50521 13.178 9.38892 14.4569C10.1089 15.497 11.4464 16.1177 12.6849 15.9813C13.5994 15.8858 14.3705 15.5141 14.9778 14.8798C15.2951 14.549 15.4521 14.3136 15.6534 13.8908C16.1243 12.8949 16.114 11.79 15.6227 10.7805C15.2576 10.0336 14.7117 9.48115 13.9781 9.11283C13.3742 8.8093 12.586 8.66948 11.9445 8.75133ZM12.6986 9.90744C12.8624 9.9927 12.9954 10.1496 13.0432 10.3133C13.0671 10.3951 13.0773 10.8146 13.0705 11.5342L13.0603 12.6289L12.9681 12.7619C12.917 12.8335 12.818 12.9324 12.7464 12.9802C12.6406 13.0518 12.5826 13.0654 12.3608 13.0654C12.139 13.0654 12.081 13.0518 11.9752 12.9802C11.9036 12.9324 11.8046 12.8335 11.7535 12.7619L11.6613 12.6289L11.6511 11.5342C11.6409 10.3644 11.6511 10.2621 11.8012 10.0814C12.023 9.82218 12.3881 9.75056 12.6986 9.90744ZM12.5758 13.4952C12.6474 13.5156 12.7668 13.5838 12.8385 13.6486C13.3264 14.092 13.0125 14.9105 12.3574 14.9036C11.7364 14.8968 11.4157 14.1704 11.8251 13.7066C12.0196 13.4883 12.2823 13.4133 12.5758 13.4952Z" fill="white"/>
</svg>
