<svg width="14" height="16" viewBox="0 0 14 16" fill="none" xmlns="http://www.w3.org/2000/svg">
<path d="M4.91113 0.578138V1.15625L6.20397 1.15L7.49324 1.14063L7.50392 0.568763L7.51104 2.63453e-05H6.21109H4.91113V0.578138Z" fill="white" fill-opacity="0.75"/>
<path d="M2.46748 0.319144C2.30721 0.384767 2.29297 0.462891 2.29297 1.2785C2.29297 1.84411 2.30365 2.0441 2.33571 2.04098C2.35708 2.03785 2.50666 2.02535 2.66337 2.01286L2.95185 1.99098V1.63161C2.95185 1.20662 3.0124 1.0785 3.26883 0.94413C3.40773 0.872256 3.47539 0.862881 3.83155 0.850382L4.234 0.834757V0.559763V0.281645L3.38992 0.284769C2.88418 0.284769 2.51022 0.300394 2.46748 0.319144Z" fill="white" fill-opacity="0.75"/>
<path d="M8.15137 0.562563V0.843807H8.48259C9.00257 0.843807 9.24475 0.93443 9.38365 1.17817C9.4442 1.28442 9.45132 1.39692 9.46913 2.31252L9.48694 3.32812L9.80035 2.12503C10.1173 0.89693 10.1601 0.628186 10.0675 0.453191C9.98555 0.293819 9.90007 0.281319 8.98833 0.281319H8.15137V0.562563Z" fill="white" fill-opacity="0.75"/>
<path d="M11.019 0.590742C10.9798 0.606366 10.9192 0.643865 10.8872 0.675115C10.848 0.715739 10.6165 1.55322 10.1998 3.15631C9.85434 4.48753 9.56229 5.60938 9.55161 5.64688C9.5338 5.71875 9.53736 5.71875 9.87571 5.71875C10.0645 5.71875 10.2176 5.7125 10.2176 5.70313C10.2176 5.69375 10.3209 5.28126 10.4491 4.78752C10.6094 4.16879 10.7055 3.85942 10.7625 3.79067C10.848 3.6813 11.0296 3.5813 11.2006 3.55005C11.3217 3.52505 12.091 3.66567 12.2548 3.73755C12.383 3.79692 12.5184 3.95629 12.5647 4.10941C12.6038 4.23128 12.5575 4.44378 12.2691 5.52188L12.2192 5.71875H12.554H12.8852L12.9208 5.6C13.0561 5.15626 14 1.43135 14 1.34697C14 1.13448 13.9679 1.12198 12.4792 0.828236C11.7384 0.681365 11.1222 0.562617 11.1116 0.565742C11.0973 0.565742 11.0581 0.578242 11.019 0.590742ZM12.5184 1.4501C13.2698 1.75634 13.2876 2.66882 12.5469 2.98756C12.0304 3.20943 11.3822 2.97819 11.2006 2.50945C11.0261 2.06571 11.2932 1.57822 11.7954 1.41572C11.9948 1.35322 12.3154 1.36572 12.5184 1.4501Z" fill="white" fill-opacity="0.75"/>
<path d="M11.9712 1.96891C11.8608 2.00953 11.7718 2.17203 11.8003 2.28453C11.843 2.45952 12.0995 2.55327 12.2882 2.46577C12.3274 2.44702 12.3808 2.38453 12.4093 2.32828C12.5233 2.08766 12.2562 1.86891 11.9712 1.96891Z" fill="white" fill-opacity="0.75"/>
<path d="M3.5918 1.74697V2.05321L3.8233 2.10946C4.27917 2.2157 4.78847 2.46882 5.16599 2.77507C6.04569 3.49068 6.40184 4.62502 6.06349 5.64688L6.04212 5.71875H7.41687H8.79162V3.57817V1.4376H8.42834H8.06151L7.94754 1.54072C7.88343 1.60009 7.76946 1.66259 7.69467 1.68134C7.59851 1.70634 7.12127 1.71884 6.17034 1.71884C4.89888 1.71884 4.77422 1.71259 4.64245 1.65947C4.56409 1.62822 4.46081 1.56572 4.41451 1.51885C4.33259 1.44072 4.31122 1.4376 3.95863 1.4376H3.5918V1.74697ZM8.06507 2.38445C8.18972 2.51257 8.16835 2.69694 8.01165 2.80319C7.92973 2.85944 6.09199 2.85944 6.01007 2.80319C5.81063 2.66882 5.83912 2.3907 6.06349 2.31258C6.10267 2.29695 6.55142 2.28758 7.05716 2.2907L7.97959 2.29695L8.06507 2.38445ZM8.05795 3.53442C8.1826 3.66255 8.17904 3.79379 8.04726 3.90942L7.94398 4.00004H7.37057C7.05716 4.00004 6.76155 3.98754 6.71169 3.96879C6.50512 3.90004 6.46595 3.62505 6.64402 3.50005C6.7295 3.4438 6.78648 3.43755 7.3492 3.43755H7.96535L8.05795 3.53442ZM7.9974 4.62502C8.22534 4.7469 8.17548 5.05002 7.91549 5.12501C7.83713 5.15001 7.64481 5.15939 7.41687 5.15001C7.07497 5.14064 7.03935 5.13439 6.95387 5.05939C6.79004 4.91564 6.84703 4.66877 7.06428 4.59065C7.10346 4.57815 7.3029 4.56565 7.50947 4.56565C7.81932 4.56253 7.90124 4.5719 7.9974 4.62502Z" fill="white" fill-opacity="0.75"/>
<path d="M2.27625 2.65336C1.98776 2.72211 1.76339 2.80961 1.53189 2.94085L1.35025 3.04398L1.4749 3.15647C1.68503 3.34709 1.70996 3.49709 1.55326 3.64709C1.4286 3.76896 1.23984 3.74396 1.04752 3.59084C0.958482 3.51897 0.880129 3.46584 0.873006 3.47209C0.726983 3.61271 0.456308 4.11895 0.406446 4.34395C0.395762 4.40332 0.374393 4.47832 0.36727 4.50644C0.349462 4.55332 0.374393 4.56269 0.527538 4.56269C0.748353 4.56269 0.876567 4.61269 0.944236 4.72206C1.01903 4.85019 1.00478 4.92518 0.894375 5.03456C0.81246 5.1158 0.76616 5.13143 0.5774 5.14705C0.360147 5.1658 0.353024 5.1658 0.374393 5.24705C0.417131 5.41267 0.499046 5.64079 0.523977 5.68142C0.548907 5.71267 1.05821 5.71892 2.9565 5.71267L5.35696 5.70329L5.41751 5.54704C5.44956 5.45955 5.48518 5.33767 5.49942 5.27205L5.52435 5.15643H5.37833C5.19313 5.15643 5.00081 5.08768 4.95095 5.00643C4.87972 4.89081 4.90465 4.73769 5.00081 4.65644C5.06848 4.60019 5.14327 4.57832 5.3071 4.56894L5.52435 4.55332L5.49942 4.44082C5.44956 4.18145 5.25368 3.76584 5.08273 3.55334L5.0115 3.46897L4.85123 3.59396C4.64822 3.74709 4.46302 3.76584 4.32412 3.64084C4.18166 3.51897 4.20303 3.37209 4.38467 3.20022C4.55918 3.0346 4.55918 3.0346 4.16385 2.84711C3.92879 2.73773 3.44799 2.59399 3.31977 2.59399C3.28772 2.59399 3.27347 2.64711 3.27347 2.76586C3.27347 2.9096 3.25923 2.95023 3.17731 3.02835C3.03485 3.16272 2.85677 3.16897 2.72144 3.0471C2.64664 2.9846 2.6324 2.94085 2.6324 2.78148C2.6324 2.56586 2.63952 2.56586 2.27625 2.65336ZM3.15594 3.79396C3.2521 3.86583 3.25566 3.88146 3.26635 4.21582L3.2806 4.56269H3.45511C3.74715 4.56269 3.91455 4.67206 3.91455 4.85956C3.91455 5.07518 3.74003 5.15643 3.27347 5.15643C2.92444 5.15643 2.73568 5.10955 2.67157 5.00643C2.64664 4.96581 2.6324 4.73144 2.6324 4.40645V3.87208L2.725 3.79708C2.84965 3.69396 3.02417 3.69396 3.15594 3.79396Z" fill="white" fill-opacity="0.75"/>
<path d="M11.2843 4.13754C11.2843 4.14691 11.1953 4.49065 11.0885 4.90314C10.9816 5.31563 10.8926 5.66875 10.8926 5.6875C10.8926 5.70625 11.0208 5.71875 11.2238 5.71875H11.555L11.7438 4.98127C11.8471 4.57503 11.9254 4.24066 11.9183 4.23441C11.9005 4.22191 11.3876 4.12504 11.3342 4.12504C11.3057 4.12504 11.2843 4.13129 11.2843 4.13754Z" fill="white" fill-opacity="0.75"/>
<path d="M0.19133 6.31548C0.00256914 6.39673 0.0132537 6.13423 0.00256914 11.0779C-0.00455391 14.3122 0.00256914 15.7059 0.0310613 15.7871C0.105853 16.0184 -0.460429 15.9996 6.85138 15.9996C11.7841 15.9996 13.4473 15.9903 13.5043 15.9621C13.547 15.9434 13.6005 15.9059 13.6254 15.8778C13.661 15.8403 13.6681 14.7747 13.6717 11.1341V6.4436L13.5613 6.36236L13.4509 6.28111L6.8585 6.28423C2.55974 6.28423 0.23763 6.29673 0.19133 6.31548ZM10.2704 6.87172C10.7014 6.92797 11.0433 7.13734 11.2534 7.47483C11.3709 7.66232 11.3745 7.6842 11.3745 7.99982C11.3745 8.31544 11.3709 8.33731 11.2534 8.52481C11.0433 8.8623 10.7228 9.06229 10.2811 9.12479C9.9962 9.16542 3.73861 9.16542 3.42163 9.12792C3.1189 9.08729 2.90165 8.99042 2.66303 8.78105C2.4066 8.55918 2.30331 8.33419 2.30331 7.99982C2.30331 7.66545 2.4066 7.44046 2.66303 7.21859C2.89096 7.01859 3.12246 6.90922 3.38958 6.87484C3.64957 6.84047 10.0104 6.84047 10.2704 6.87172ZM3.64601 12.931C3.87751 13.0247 4.0449 13.1653 4.14818 13.3591C4.2301 13.5059 4.23366 13.5466 4.23366 14.1403C4.23366 14.7309 4.22653 14.7747 4.14818 14.9215C4.05914 15.0934 3.83121 15.2903 3.63176 15.3684C3.43944 15.4465 1.46635 15.4465 1.27403 15.3684C1.07459 15.2903 0.84665 15.0934 0.757612 14.9215C0.679258 14.7747 0.672135 14.7309 0.672135 14.1403C0.672135 13.5778 0.68282 13.4997 0.746927 13.3747C0.878704 13.1185 1.14226 12.9341 1.46635 12.8747C1.54827 12.8591 2.03264 12.8497 2.54193 12.8528C3.42519 12.8591 3.47505 12.8622 3.64601 12.931ZM10.0176 13.2466C10.3737 13.5653 10.4307 13.6278 10.4307 13.7153C10.4307 13.7872 10.3987 13.8466 10.3274 13.9091C10.1956 14.0247 10.0461 14.0278 9.90004 13.9216L9.79319 13.8403L9.78251 14.5434L9.77183 15.2497L9.67566 15.334C9.54389 15.4496 9.35869 15.4496 9.22691 15.334L9.13075 15.2497L9.12007 14.5622L9.10938 13.8778L8.99541 13.9403C8.86008 14.0122 8.78528 14.0153 8.65351 13.9528C8.53598 13.8997 8.45762 13.7591 8.48968 13.6497C8.51817 13.5559 9.28034 12.8841 9.38006 12.8685C9.5332 12.8435 9.61868 12.8935 10.0176 13.2466ZM12.6317 13.2341C13.0092 13.5653 13.0306 13.5903 13.0306 13.7122C13.0306 13.8153 13.0092 13.8528 12.9202 13.9184C12.8597 13.9653 12.7671 13.9997 12.7101 13.9997C12.6531 13.9997 12.5605 13.9653 12.5 13.9184L12.3895 13.8372V14.5153C12.3895 15.259 12.3717 15.334 12.1794 15.4028C12.0583 15.4496 11.9408 15.4246 11.8304 15.334C11.7485 15.2715 11.7485 15.2559 11.7485 14.559V13.8466L11.6203 13.9216C11.4707 14.0122 11.3923 14.0184 11.2534 13.9528C11.1395 13.9028 11.0682 13.7622 11.0967 13.6497C11.1216 13.5591 11.8055 12.9435 11.9372 12.8935C12.1189 12.8216 12.2079 12.8653 12.6317 13.2341Z" fill="white" fill-opacity="0.75"/>
<path d="M3.32708 7.48107C3.10271 7.56857 2.95312 7.77482 2.95312 7.99981C2.95312 8.15606 3.00655 8.2748 3.12408 8.3873C3.31996 8.57167 3.15257 8.5623 6.86012 8.5623C10.6852 8.5623 10.4003 8.57792 10.6246 8.33418C10.7244 8.22481 10.7351 8.19043 10.7351 7.99981C10.7351 7.80919 10.7244 7.77482 10.6246 7.66544C10.4003 7.41857 10.6852 7.43732 6.85299 7.43732C4.075 7.44045 3.41256 7.4467 3.32708 7.48107Z" fill="white" fill-opacity="0.75"/>
<path d="M1.4051 13.5338C1.3125 13.6276 1.3125 13.6369 1.3125 14.1276C1.3125 14.6307 1.33031 14.7213 1.4514 14.8025C1.53331 14.8588 3.37106 14.8588 3.45298 14.8025C3.57407 14.7213 3.59187 14.6307 3.59187 14.1276C3.59187 13.6369 3.59187 13.6276 3.49927 13.5338L3.40668 13.4369H2.45219H1.4977L1.4051 13.5338Z" fill="white" fill-opacity="0.75"/>
</svg>
