<svg width="16" height="16" viewBox="0 0 16 16" fill="none" xmlns="http://www.w3.org/2000/svg">
<path d="M7.37382 0.0230713C3.67836 0.309653 0.663815 3.07653 0.0615911 6.72703C0.0342173 6.8942 0.0102652 7.09208 0.0102652 7.16031V7.28996H3.26091H6.51155V6.17775C6.51155 4.88131 6.52181 4.8199 6.75107 4.59132C7.01454 4.32862 7.36698 4.2945 7.66809 4.50602C7.73653 4.55379 8.46878 5.26342 9.28999 6.08563C10.3062 7.10231 10.8024 7.62089 10.8366 7.70618C10.905 7.86994 10.905 8.14288 10.8366 8.30664C10.8024 8.39193 10.3062 8.91051 9.28999 9.92719C8.46878 10.7494 7.73653 11.459 7.66809 11.5068C7.36698 11.7183 7.01454 11.6842 6.75107 11.4215C6.52181 11.1929 6.51155 11.1315 6.51155 9.83507V8.72286H3.25749H0L0.0205304 8.97874C0.0479042 9.28238 0.157399 9.82143 0.270317 10.2206C1.1018 13.083 3.47648 15.2665 6.39179 15.8499C6.96322 15.9659 7.3225 15.9966 7.98289 16C9.75535 16.0034 11.3738 15.4678 12.8007 14.4067C13.2695 14.0587 14.053 13.2775 14.4021 12.8101C15.4662 11.3874 16 9.7839 16 8.00641C16 6.22551 15.4662 4.62884 14.4021 3.20276C14.0462 2.72513 13.266 1.94726 12.7938 1.59927C11.213 0.432474 9.29341 -0.123631 7.37382 0.0230713Z" fill="white" fill-opacity="0.75"/>
</svg>
