<svg width="16" height="16" viewBox="0 0 16 16" fill="none" xmlns="http://www.w3.org/2000/svg">
<path d="M6.93897 0.0204876C3.74798 0.255541 1.01669 2.54563 0.228167 5.64162C0.0603972 6.30648 0 6.79002 0 7.50861C0 8.59993 0.184547 9.50992 0.600617 10.4871C1.78507 13.2607 4.59355 15.0908 7.56308 15.0236L8.02277 15.0135L7.88855 14.7953C7.01279 13.3749 6.91213 11.5582 7.62683 10.0371C7.7946 9.67782 8.12678 9.17413 8.40193 8.85849C9.99574 7.04522 12.7203 6.63556 14.7738 7.90485L14.9919 8.03916L15.002 7.57913C15.0523 5.37299 14.0524 3.19707 12.3143 1.74645C10.8312 0.500669 8.88175 -0.123902 6.93897 0.0204876ZM7.70736 2.1729C7.77782 2.19305 7.90197 2.27028 7.9825 2.34416C8.23751 2.57921 8.2308 2.49862 8.2308 5.18159C8.2308 6.88069 8.22073 7.5892 8.19054 7.70337C8.13685 7.91828 7.90197 8.15333 7.68723 8.20706C7.5765 8.23392 7.03628 8.24735 5.88873 8.24735C4.00971 8.24735 4.00299 8.24735 3.77483 7.99887C3.55337 7.7571 3.51646 7.47168 3.66745 7.17282C3.74127 7.02508 3.89562 6.89748 4.06675 6.84039C4.14392 6.81689 4.60026 6.80345 5.48273 6.80345H6.78798V4.76185V2.7236L6.86851 2.55235C6.95239 2.37102 7.08661 2.25349 7.28793 2.18298C7.43893 2.12925 7.53959 2.12589 7.70736 2.1729Z" fill="white" fill-opacity="0.75"/>
<ellipse cx="12.4262" cy="12.4306" rx="3.57468" ry="3.56923" fill="white" fill-opacity="0.75"/>
<path d="M13.7875 12.3713V12.7313H12.0575V14.1113C12.0575 14.268 12.0775 14.3747 12.1175 14.4313C12.1608 14.488 12.2442 14.5163 12.3675 14.5163C12.4675 14.5163 12.5675 14.4947 12.6675 14.4513C12.7708 14.408 12.8625 14.3497 12.9425 14.2763C13.0258 14.203 13.0925 14.1197 13.1425 14.0263C13.1925 13.9297 13.2175 13.8313 13.2175 13.7313C13.2175 13.6513 13.1942 13.5897 13.1475 13.5463C13.1042 13.503 13.0325 13.4813 12.9325 13.4813C12.8425 13.4813 12.7592 13.4913 12.6825 13.5113L12.6325 13.1713C12.6892 13.1547 12.7492 13.143 12.8125 13.1363C12.8792 13.1263 12.9458 13.1213 13.0125 13.1213C13.1892 13.1213 13.3325 13.1663 13.4425 13.2563C13.5558 13.343 13.6125 13.4847 13.6125 13.6813C13.6125 13.8347 13.5758 13.983 13.5025 14.1263C13.4325 14.2663 13.3375 14.393 13.2175 14.5063C13.0975 14.6163 12.9625 14.703 12.8125 14.7663C12.6625 14.8297 12.5092 14.8613 12.3525 14.8613C12.2292 14.8613 12.1275 14.848 12.0475 14.8213C11.9675 14.7913 11.9008 14.7513 11.8475 14.7013C11.8142 14.668 11.7842 14.6313 11.7575 14.5913C11.7308 14.548 11.7092 14.4913 11.6925 14.4213C11.6792 14.348 11.6725 14.2513 11.6725 14.1313V12.7313H11.1875V12.3713H13.7875ZM11.4375 11.1163C11.5342 11.1163 11.6175 11.1297 11.6875 11.1563C11.7608 11.183 11.8225 11.223 11.8725 11.2763C11.9325 11.3397 11.9775 11.4263 12.0075 11.5363C12.0408 11.643 12.0575 11.7947 12.0575 11.9913V12.4113H11.6725V12.0113C11.6725 11.8947 11.6642 11.798 11.6475 11.7213C11.6342 11.6413 11.6025 11.5813 11.5525 11.5413C11.5025 11.498 11.4275 11.4763 11.3275 11.4763C11.2642 11.4763 11.2008 11.4863 11.1375 11.5063C11.0775 11.523 11.0258 11.5397 10.9825 11.5563L10.8475 11.2463C10.9475 11.203 11.0442 11.1713 11.1375 11.1513C11.2342 11.128 11.3342 11.1163 11.4375 11.1163Z" fill="#063288" fill-opacity="0.75"/>
</svg>
