<svg width="16" height="16" viewBox="0 0 16 16" fill="none" xmlns="http://www.w3.org/2000/svg">
<path d="M7.2403 0.0200691C4.74299 0.273706 2.54298 1.64209 1.20983 3.76513C-0.314222 6.18877 -0.404976 9.32948 0.975117 11.8377C1.34126 12.5046 1.76687 13.0745 2.32079 13.6319C2.9811 14.302 3.63829 14.7748 4.48638 15.1913C5.30004 15.589 6.07927 15.827 7.02124 15.9616C7.39365 16.0148 8.62353 16.0117 9.00845 15.9585C10.955 15.6892 12.6011 14.8312 13.928 13.3908C15.2017 12.013 15.9872 10.0622 15.9997 8.2617C16.0028 7.77634 15.9872 7.7325 15.7869 7.5822C15.6648 7.49139 15.3707 7.49139 15.2486 7.5822C15.0577 7.72311 15.0389 7.77947 15.0108 8.25857C14.9044 10.1781 14.1815 11.7844 12.8514 13.0589C11.7999 14.0672 10.5826 14.6746 9.10234 14.9283C8.57033 15.0191 7.50318 15.0253 6.98995 14.9408C5.4659 14.6903 4.22663 14.0797 3.15322 13.0495C0.280376 10.2971 0.280376 5.70654 3.15322 2.95411C4.12649 2.02098 5.31568 1.39472 6.59876 1.13169C8.87701 0.671383 11.2147 1.35401 12.8671 2.95724L13.1425 3.22654L12.454 3.2422C11.8187 3.25785 11.7593 3.26411 11.6779 3.32361C11.3712 3.5522 11.3712 3.93422 11.6779 4.1628C11.7655 4.22543 11.8031 4.22856 13.0392 4.23795C14.3098 4.24422 14.3129 4.24422 14.4381 4.1722C14.5194 4.12836 14.5883 4.05634 14.6321 3.9624C14.7041 3.82462 14.7041 3.80583 14.7041 2.61593C14.7041 1.26633 14.6978 1.23189 14.4819 1.07845C14.3411 0.978252 14.0625 0.97199 13.9342 1.06906C13.7308 1.21936 13.7183 1.26007 13.7026 1.82371L13.687 2.34351L13.4241 2.1024C12.2193 0.99704 10.761 0.305019 9.11798 0.0607762C8.73619 0.00441252 7.62523 -0.020638 7.2403 0.0200691Z" fill="white"/>
<path d="M3.63443 5.54731C3.10555 5.68822 2.69246 6.11094 2.55164 6.6464C2.48279 6.90943 2.48279 9.09509 2.55164 9.35812C2.69559 9.91549 3.15562 10.3601 3.70015 10.4729C3.81281 10.4979 4.55449 10.5073 6.0316 10.5011C8.16276 10.4917 8.19719 10.4917 8.28168 10.4259C8.44755 10.3038 8.49762 10.2036 8.49762 10.0063C8.49762 9.80903 8.44755 9.70883 8.28168 9.58671C8.19719 9.52095 8.15651 9.52095 6.00969 9.50529C3.86288 9.48964 3.8222 9.48964 3.7377 9.42388C3.69076 9.38943 3.62191 9.32054 3.58749 9.27357C3.5249 9.18903 3.52177 9.15145 3.52177 8.00226C3.52177 6.85307 3.5249 6.81549 3.58749 6.73094C3.62191 6.68398 3.69076 6.61509 3.7377 6.58064C3.8222 6.51488 3.83159 6.51488 8.01255 6.51488C12.1935 6.51488 12.2029 6.51488 12.2874 6.58064C12.3343 6.61509 12.4032 6.68398 12.4376 6.73094C12.5002 6.81549 12.5033 6.86246 12.519 8.50327C12.5346 10.1441 12.5378 10.1911 12.6003 10.2756C12.7224 10.4416 12.8225 10.4917 13.0197 10.4917C13.2168 10.4917 13.317 10.4416 13.439 10.2756C13.5048 10.1911 13.5048 10.1503 13.5141 8.52519C13.5204 7.40418 13.511 6.8061 13.4891 6.6965C13.3733 6.14852 12.9289 5.68822 12.3719 5.54418C12.1059 5.47529 3.89105 5.47842 3.63443 5.54731Z" fill="white"/>
<path d="M4.77026 7.02779C4.48235 7.10294 4.22886 7.30961 4.09742 7.5789C3.99102 7.79496 3.98789 8.1989 4.09116 8.4087C4.19756 8.63102 4.32587 8.76567 4.54181 8.88153C4.72331 8.9786 4.76087 8.98799 5.00497 8.98486C5.23029 8.98486 5.29601 8.97234 5.43057 8.90345C5.66528 8.7782 5.76543 8.68426 5.88435 8.46506C5.98136 8.28345 5.99075 8.24587 5.99075 8.00163C5.99075 7.75739 5.98136 7.71981 5.88435 7.53819C5.70597 7.21254 5.4337 7.03718 5.07068 7.01526C4.95802 7.009 4.82346 7.01213 4.77026 7.02779Z" fill="white"/>
<path d="M7.77026 7.02779C7.48235 7.10294 7.22886 7.30961 7.09742 7.5789C6.99102 7.79496 6.98789 8.1989 7.09116 8.4087C7.19756 8.63102 7.32587 8.76567 7.54181 8.88153C7.72331 8.9786 7.76087 8.98799 8.00497 8.98486C8.23029 8.98486 8.29601 8.97234 8.43057 8.90345C8.66528 8.7782 8.76543 8.68426 8.88435 8.46506C8.98136 8.28345 8.99075 8.24587 8.99075 8.00163C8.99075 7.75739 8.98136 7.71981 8.88435 7.53819C8.70597 7.21254 8.4337 7.03718 8.07068 7.01526C7.95802 7.009 7.82346 7.01213 7.77026 7.02779Z" fill="white"/>
<path d="M10.7781 7.02779C10.4902 7.10294 10.2367 7.30961 10.1052 7.5789C9.99883 7.79496 9.9957 8.1989 10.099 8.4087C10.2054 8.63102 10.3337 8.76567 10.5496 8.88153C10.7311 8.9786 10.7687 8.98799 11.0128 8.98486C11.2381 8.98486 11.3038 8.97234 11.4384 8.90345C11.6731 8.7782 11.7732 8.68426 11.8922 8.46506C11.9892 8.28345 11.9986 8.24587 11.9986 8.00163C11.9986 7.75739 11.9892 7.71981 11.8922 7.53819C11.7138 7.21254 11.4415 7.03718 11.0785 7.01526C10.9658 7.009 10.8313 7.01213 10.7781 7.02779Z" fill="white"/>
<path d="M11.3238 10.0433C11.2768 10.0652 10.9357 10.3596 10.5602 10.6946C10.1878 11.0297 9.8717 11.3084 9.85918 11.3146C9.84353 11.3209 9.71522 11.2176 9.57127 11.086C9.26771 10.8042 9.14879 10.7447 8.95789 10.7667C8.72944 10.7917 8.55419 10.9639 8.5229 11.1862C8.4916 11.4305 8.54167 11.5056 9.07055 11.9816C9.67767 12.5296 9.78407 12.5828 10.0532 12.4544C10.1158 12.4262 10.5696 12.038 11.0609 11.5933C12.0154 10.7291 12.0435 10.6946 12.0091 10.4347C11.9778 10.203 11.7963 10.0339 11.5585 10.0183C11.4771 10.0089 11.3707 10.0214 11.3238 10.0433Z" fill="white"/>
</svg>
