<svg width="16" height="15" viewBox="0 0 16 15" fill="none" xmlns="http://www.w3.org/2000/svg">
<path d="M6.19967 0.0360868C5.87048 0.102005 5.68129 0.164262 5.33696 0.340044C5.01155 0.501178 4.45154 1.02486 4.25478 1.34713C3.78558 2.12351 3.74774 3.15257 4.16018 3.95091C4.23207 4.0974 4.36829 4.30614 4.46289 4.42333L4.62938 4.62841V5.08618C4.62938 5.49267 4.63694 5.55127 4.70884 5.63916C4.75424 5.69409 4.82235 5.73438 4.87911 5.73438C4.9283 5.73438 5.17803 5.65381 5.43534 5.55493L5.90075 5.37549L6.14292 5.43042C6.49103 5.50732 7.20996 5.47803 7.54294 5.36816C8.50404 5.05322 9.20405 4.34276 9.45757 3.42723C9.54838 3.1013 9.55216 2.3945 9.46135 2.07224C9.20026 1.12008 8.42458 0.354693 7.45969 0.094681C7.09645 -0.00419673 6.54022 -0.0298317 6.19967 0.0360868ZM7.23266 0.552448C8.47755 0.838095 9.25702 2.06491 8.96188 3.27708C8.83702 3.78245 8.43214 4.32811 7.94403 4.63573C7.44078 4.958 6.71806 5.06787 6.124 4.91406L5.85913 4.84814L5.52236 4.97997C5.33317 5.05322 5.17803 5.11181 5.17047 5.11181C5.1629 5.11181 5.15912 4.96533 5.15912 4.78954V4.46727L4.94722 4.21093C4.71262 3.92528 4.50829 3.54442 4.4364 3.24412C4.37208 2.9658 4.37964 2.46775 4.45532 2.18576C4.65965 1.42404 5.32939 0.768515 6.10886 0.570759C6.44941 0.48653 6.90725 0.479206 7.23266 0.552448Z" fill="white" fill-opacity="0.75"/>
<path d="M5.77074 1.80167C5.7102 1.84195 5.6875 1.89322 5.6875 1.98844C5.6875 2.10196 5.72534 2.1569 6.00913 2.43522L6.33075 2.75382L6.00913 3.06144C5.74047 3.32146 5.6875 3.39104 5.6875 3.48991C5.6875 3.63274 5.84642 3.7719 5.9675 3.73528C6.01291 3.72429 6.19075 3.57414 6.36859 3.40569L6.69022 3.09807L6.97401 3.37639C7.12915 3.52654 7.3032 3.67668 7.35996 3.70598C7.53023 3.79021 7.73078 3.67302 7.73078 3.48991C7.73078 3.40202 7.66645 3.31779 7.40158 3.05412L7.07239 2.73185L7.40158 2.40958C7.75726 2.06534 7.80267 1.95914 7.6551 1.81632C7.51131 1.67716 7.40537 1.71744 7.0459 2.06168L6.70914 2.38029L6.37238 2.06168C6.02048 1.72476 5.93345 1.68814 5.77074 1.80167Z" fill="white" fill-opacity="0.75"/>
<path d="M2.21071 3.79019C1.8853 3.89273 1.57503 4.14908 1.41232 4.45304C1.32529 4.61051 1.32151 4.65446 1.32151 5.31364C1.32151 6.00212 1.32151 6.01311 1.42367 6.19988C1.48421 6.30608 1.58259 6.44891 1.64314 6.51849L1.75665 6.643L1.57503 6.77484C1.35935 6.92498 1.21556 7.11541 1.1134 7.37909C1.0415 7.55487 1.03772 7.67206 1.03772 9.50679C1.03772 11.195 1.04529 11.466 1.09826 11.5905C1.15124 11.726 1.15124 11.7444 1.09826 11.8213C1.04529 11.8908 1.03772 12.074 1.03772 13.1946V14.4873H0.606362C0.243112 14.4873 0.163651 14.4983 0.0879745 14.5532C-0.0293248 14.6484 -0.0293248 14.8389 0.0879745 14.9341C0.171219 14.9963 0.451224 15 8 15C15.5488 15 15.8288 14.9963 15.912 14.9341C16.0293 14.8389 16.0293 14.6484 15.912 14.5532C15.8363 14.4983 15.7569 14.4873 15.3936 14.4873H14.9623V13.1946C14.9623 12.074 14.9547 11.8908 14.9017 11.8213C14.8488 11.7444 14.8488 11.726 14.9017 11.5905C14.9547 11.466 14.9623 11.195 14.9623 9.50679C14.9623 7.67206 14.9585 7.55487 14.8866 7.37909C14.7844 7.11541 14.6407 6.92498 14.425 6.77484L14.2433 6.643L14.3569 6.51849C14.4174 6.44891 14.5158 6.30608 14.5763 6.19988C14.6785 6.01311 14.6785 6.00212 14.6785 5.31364C14.6785 4.62882 14.6785 4.61417 14.5763 4.43107C14.4401 4.1857 14.1412 3.92569 13.8725 3.83048C13.6985 3.76456 13.6001 3.75357 13.3541 3.76456C12.7601 3.79752 12.3325 4.13443 12.1812 4.69108C12.1017 4.99137 12.0979 6.74554 12.1774 6.85174C12.2228 6.914 12.219 6.93963 12.1282 7.07147C11.939 7.34247 11.8898 7.51459 11.8671 8.01264L11.8482 8.48139H10.8038C10.2211 8.48139 9.69895 8.4997 9.62327 8.51801C9.25624 8.61689 9.04056 8.90254 9.04813 9.27608L9.05191 9.50679H8H6.94809L6.95187 9.27608C6.95944 8.90254 6.74376 8.61689 6.37673 8.51801C6.30105 8.4997 5.77888 8.48139 5.19617 8.48139H4.15183L4.13291 8.01264C4.1102 7.51459 4.06101 7.34247 3.87182 7.07147C3.78101 6.93963 3.77723 6.914 3.82263 6.85174C3.90209 6.74554 3.89831 4.99504 3.81885 4.69108C3.75452 4.44938 3.55776 4.14542 3.39127 4.02457C3.13397 3.84146 2.95613 3.77921 2.62694 3.76822C2.4491 3.76456 2.26369 3.77188 2.21071 3.79019ZM2.78964 4.2736C2.97505 4.3212 3.18695 4.50431 3.27397 4.69108C3.33452 4.81925 3.34587 4.94377 3.34587 5.66887V6.50384H2.99397C2.41504 6.50384 2.12747 6.37566 1.91936 6.03508C1.82098 5.87761 1.81341 5.82634 1.80206 5.4052C1.78314 4.83024 1.82098 4.68009 2.03666 4.47135C2.25234 4.26261 2.50585 4.19669 2.78964 4.2736ZM13.6304 4.27726C13.8498 4.32853 14.092 4.55558 14.1601 4.76798C14.1828 4.85221 14.2055 5.10124 14.2055 5.32097C14.2055 5.81902 14.1412 6.01677 13.9179 6.23284C13.7136 6.43426 13.4752 6.50384 13.006 6.50384H12.6541V5.66887C12.6541 4.93644 12.6655 4.81925 12.726 4.69108C12.8168 4.50431 12.9833 4.3505 13.1687 4.28824C13.3541 4.22233 13.4109 4.22233 13.6304 4.27726ZM2.24098 7.07147C1.9799 7.20331 1.79449 7.48529 1.79449 7.7453C1.79449 7.91742 2.38855 9.57637 2.49829 9.71553C2.65342 9.91329 2.8464 9.98287 3.26262 9.98287H3.61074V10.111V10.2392H2.57018H1.52962V9.00142C1.52962 8.00531 1.54097 7.72699 1.58638 7.57684C1.65827 7.33881 1.88909 7.10809 2.13125 7.03851C2.39612 6.95794 2.43774 6.97259 2.24098 7.07147ZM3.14911 7.0971C3.3383 7.18133 3.51614 7.3974 3.5729 7.6098C3.5956 7.68671 3.61074 7.87714 3.60317 8.03461L3.59182 8.3166L3.42533 7.84784C3.2437 7.32782 3.13019 7.16302 2.87289 7.0495L2.72153 6.97992L2.85397 7.00189C2.92586 7.01287 3.06208 7.05682 3.14911 7.0971ZM13.1271 7.0495C12.8698 7.15936 12.7563 7.32782 12.5747 7.84784C12.4006 8.34956 12.3703 8.35322 12.3968 7.87348C12.4233 7.41937 12.6163 7.15204 13.006 7.03119C13.2368 6.96527 13.305 6.97259 13.1271 7.0495ZM13.8536 7.03485C13.9823 7.07147 14.0996 7.14105 14.2017 7.23993C14.4552 7.48895 14.4704 7.57684 14.4704 9.00142V10.2392H13.4298H12.3893V10.111V9.98287H12.7412C13.1536 9.98287 13.3466 9.91329 13.5017 9.71553C13.6114 9.57637 14.2055 7.91742 14.2055 7.7453C14.2055 7.48529 14.0201 7.20331 13.759 7.07147C13.5547 6.96893 13.5812 6.95794 13.8536 7.03485ZM2.73288 7.55487C2.77829 7.59516 2.89181 7.86615 3.02424 8.25434C3.17559 8.70112 3.26262 8.89888 3.31938 8.93916C3.38749 8.98311 3.57668 8.99409 4.4167 8.99409H5.43077L5.41942 9.23946L5.40806 9.48848L4.25399 9.49947C3.07343 9.50679 2.92586 9.49581 2.87289 9.36763C2.77072 9.12593 2.32423 7.78925 2.32423 7.72333C2.32423 7.5329 2.57775 7.4267 2.73288 7.55487ZM13.6001 7.56586C13.6417 7.60614 13.6758 7.67572 13.6758 7.72333C13.6758 7.78925 13.2293 9.12593 13.1271 9.36763C13.0741 9.49581 12.9266 9.50679 11.746 9.49947L10.5919 9.48848L10.5806 9.23946L10.5692 8.99409H11.5833C12.4233 8.99409 12.6125 8.98311 12.6806 8.93916C12.7374 8.89888 12.8244 8.70112 12.9758 8.25434C13.1082 7.86615 13.2217 7.59516 13.2671 7.55487C13.3693 7.47064 13.5055 7.4743 13.6001 7.56586ZM6.36159 9.07466C6.46754 9.16987 6.47133 9.28706 6.37673 9.40059C6.32376 9.46651 6.267 9.48482 6.12321 9.48482L5.9378 9.48848L5.92645 9.23946L5.9151 8.99409H6.09294C6.22538 8.99409 6.29727 9.01606 6.36159 9.07466ZM10.0735 9.23946L10.0622 9.48848L9.87679 9.48482C9.733 9.48482 9.67624 9.46651 9.62327 9.40059C9.45678 9.20283 9.60435 8.99409 9.89949 8.99409H10.0849L10.0735 9.23946ZM5.42698 10.2136V10.448L5.21509 10.3418C5.01454 10.2465 4.96914 10.2392 4.57183 10.2392H4.14048V10.111V9.98287H4.78373H5.42698V10.2136ZM10.0735 10.2465L10.0849 10.4956H8H5.91888V10.2649C5.91888 10.1367 5.93024 10.0195 5.94537 10.0085C5.95672 9.99386 6.89133 9.98653 8.01514 9.99019L10.0622 10.0012L10.0735 10.2465ZM11.8595 10.111V10.2392H11.4282C11.0309 10.2392 10.9855 10.2465 10.7849 10.3418L10.573 10.448V10.2136V9.98287H11.2163H11.8595V10.111ZM5.01454 10.7995C5.15455 10.9057 5.16211 10.9753 5.16211 12.3816V13.7585L4.9086 13.7475L4.65129 13.7366L4.63238 12.7917C4.61346 11.9092 4.60967 11.8396 4.54156 11.792C4.48102 11.7517 4.23129 11.7407 3.1983 11.7407C2.00639 11.7407 1.91936 11.737 1.80584 11.6675C1.6053 11.5503 1.55611 11.4367 1.53719 11.0778L1.52205 10.7519H3.23614C4.52643 10.7556 4.96914 10.7666 5.01454 10.7995ZM14.4704 10.9973C14.4704 11.3232 14.4212 11.4843 14.2774 11.6162L14.1639 11.7224L12.8244 11.7407C11.7952 11.7553 11.4736 11.77 11.4357 11.8066C11.3979 11.8432 11.3828 12.0923 11.3676 12.7954L11.3487 13.7366L11.0952 13.7475L10.8379 13.7585V12.3816C10.8379 11.239 10.8492 10.9863 10.8946 10.8984C10.9249 10.8435 10.9703 10.7885 10.9968 10.7776C11.0233 10.7666 11.8179 10.7556 12.7601 10.7556L14.4704 10.7519V10.9973ZM7.73513 12.7478V14.4873H7.20918H6.68322L6.58484 14.2859C6.43349 13.9929 6.07402 13.7549 5.78267 13.7549H5.69185L5.68429 12.3816L5.67293 11.0083H6.70592H7.73513V12.7478ZM10.3157 12.3816L10.3081 13.7549H10.2173C9.92598 13.7549 9.56651 13.9929 9.41516 14.2859L9.31678 14.4873H8.79082H8.26487V12.7478V11.0083H9.29786H10.3271L10.3157 12.3816ZM3.34587 13.3703V14.4873H2.43774H1.52962V13.3703V12.2534H2.43774H3.34587V13.3703ZM4.14048 13.3703V14.4873H4.00804H3.87561V13.3703V12.2534H4.00804H4.14048V13.3703ZM12.1244 13.3703V14.4873H11.992H11.8595V13.3703V12.2534H11.992H12.1244V13.3703ZM14.4704 13.3703V14.4873H13.5623H12.6541V13.3703V12.2534H13.5623H14.4704V13.3703ZM5.85456 14.2822C5.92267 14.3079 6.0097 14.3664 6.04753 14.4104L6.11943 14.4873H5.37779H4.63238V14.3848C4.63238 14.3262 4.64373 14.2676 4.65886 14.2566C4.70805 14.2053 5.72591 14.2273 5.85456 14.2822ZM11.3601 14.3664L11.3714 14.4873H10.626H9.88057L9.95247 14.4104C10.0925 14.2566 10.2173 14.231 10.8 14.2419L11.3487 14.2493L11.3601 14.3664Z" fill="white" fill-opacity="0.75"/>
</svg>
