<svg width="16" height="16" viewBox="0 0 16 16" fill="none" xmlns="http://www.w3.org/2000/svg">
<circle cx="8" cy="8" r="8" fill="white" fill-opacity="0.75"/>
<path d="M12.14 7.024V7.888H7.988V11.2C7.988 11.576 8.036 11.832 8.132 11.968C8.236 12.104 8.436 12.172 8.732 12.172C8.972 12.172 9.212 12.12 9.452 12.016C9.7 11.912 9.92 11.772 10.112 11.596C10.312 11.42 10.472 11.22 10.592 10.996C10.712 10.764 10.772 10.528 10.772 10.288C10.772 10.096 10.716 9.948 10.604 9.844C10.5 9.74 10.328 9.688 10.088 9.688C9.872 9.688 9.672 9.712 9.488 9.76L9.368 8.944C9.504 8.904 9.648 8.876 9.8 8.86C9.96 8.836 10.12 8.824 10.28 8.824C10.704 8.824 11.048 8.932 11.312 9.148C11.584 9.356 11.72 9.696 11.72 10.168C11.72 10.536 11.632 10.892 11.456 11.236C11.288 11.572 11.06 11.876 10.772 12.148C10.484 12.412 10.16 12.62 9.8 12.772C9.44 12.924 9.072 13 8.696 13C8.4 13 8.156 12.968 7.964 12.904C7.772 12.832 7.612 12.736 7.484 12.616C7.404 12.536 7.332 12.448 7.268 12.352C7.204 12.248 7.152 12.112 7.112 11.944C7.08 11.768 7.064 11.536 7.064 11.248V7.888H5.9V7.024H12.14ZM6.5 4.012C6.732 4.012 6.932 4.044 7.1 4.108C7.276 4.172 7.424 4.268 7.544 4.396C7.688 4.548 7.796 4.756 7.868 5.02C7.948 5.276 7.988 5.64 7.988 6.112V7.12H7.064V6.16C7.064 5.88 7.044 5.648 7.004 5.464C6.972 5.272 6.896 5.128 6.776 5.032C6.656 4.928 6.476 4.876 6.236 4.876C6.084 4.876 5.932 4.9 5.78 4.948C5.636 4.988 5.512 5.028 5.408 5.068L5.084 4.324C5.324 4.22 5.556 4.144 5.78 4.096C6.012 4.04 6.252 4.012 6.5 4.012Z" fill="#063288" fill-opacity="0.75"/>
</svg>
