<svg width="14" height="14" viewBox="0 0 14 14" fill="none" xmlns="http://www.w3.org/2000/svg">
<path d="M1.98412 0.0242135C1.50914 0.105037 1.08807 0.33067 0.707411 0.711216C0.400866 1.01767 0.225698 1.29719 0.0909528 1.68784L0 1.95725V6.9919V12.0266L0.0909528 12.296C0.225698 12.6866 0.400866 12.9661 0.707411 13.2726C1.01396 13.579 1.29355 13.7542 1.68431 13.8889L1.9538 13.9798L6.0871 13.9899L10.2204 14L9.98123 13.771C8.718 12.5519 8.93022 10.4909 10.4124 9.56479C11.5039 8.88453 12.8749 9.05628 13.7709 9.98238L14 10.2215L13.9899 6.08937L13.9798 1.95725L13.8888 1.68784C13.7541 1.29719 13.5789 1.01767 13.2724 0.711216C12.9658 0.404759 12.6862 0.229641 12.2955 0.0949343L12.026 0.00400752L7.09095 0.000639862C4.37584 -0.0027278 2.07844 0.00737518 1.98412 0.0242135ZM3.6718 2.24687C3.88402 2.3479 4.08614 2.54996 4.19394 2.76549C4.26131 2.90356 4.27815 2.98439 4.27815 3.22012C4.27478 3.47943 4.26468 3.52658 4.16362 3.71854C4.03561 3.95427 3.92782 4.05867 3.67517 4.19001C3.53032 4.2641 3.45958 4.27757 3.21704 4.27757C2.98123 4.28093 2.90039 4.2641 2.76227 4.19674C1.88643 3.76568 1.96054 2.52975 2.88017 2.19635C3.0924 2.1189 3.45284 2.14247 3.6718 2.24687ZM11.7565 3.0349C11.8104 3.08542 11.8407 3.15614 11.8407 3.22012C11.8407 3.28411 11.8104 3.35483 11.7565 3.40534L11.6757 3.48954H8.60683H5.53802L5.45717 3.40534C5.40327 3.35483 5.37295 3.28411 5.37295 3.22012C5.37295 3.15614 5.40327 3.08542 5.45717 3.0349L5.53802 2.95071H8.60683H11.6757L11.7565 3.0349ZM3.6718 6.01865C3.88402 6.11968 4.08614 6.32174 4.19394 6.53727C4.26131 6.67534 4.27815 6.75616 4.27815 6.9919C4.27478 7.25121 4.26468 7.29836 4.16362 7.49031C4.03561 7.72605 3.92782 7.83045 3.67517 7.96179C3.53032 8.03588 3.45958 8.04935 3.21704 8.04935C2.98123 8.05271 2.90039 8.03588 2.76227 7.96852C1.88643 7.53746 1.96054 6.30153 2.88017 5.96813C3.0924 5.89068 3.45284 5.91425 3.6718 6.01865ZM11.7565 6.80668C11.8104 6.85719 11.8407 6.92792 11.8407 6.9919C11.8407 7.05589 11.8104 7.12661 11.7565 7.17712L11.6757 7.26131H8.60683H5.53802L5.45717 7.17712C5.40327 7.12661 5.37295 7.05589 5.37295 6.9919C5.37295 6.92792 5.40327 6.85719 5.45717 6.80668L5.53802 6.72249H8.60683H11.6757L11.7565 6.80668ZM3.65833 9.78369C3.89076 9.89482 4.03561 10.0329 4.16362 10.2653C4.26805 10.4572 4.27815 10.501 4.27815 10.7637C4.27815 11.0297 4.26805 11.0668 4.15688 11.2688C3.63811 12.2118 2.2334 11.9121 2.14581 10.8411C2.10876 10.3562 2.40183 9.91503 2.88017 9.73991C3.08229 9.66582 3.45284 9.6894 3.65833 9.78369ZM8.25313 10.5785C8.30703 10.629 8.33734 10.6997 8.33734 10.7637C8.33734 10.8277 8.30703 10.8984 8.25313 10.9489L8.17228 11.0331H6.85515H5.53802L5.45717 10.9489C5.40327 10.8984 5.37295 10.8277 5.37295 10.7637C5.37295 10.6997 5.40327 10.629 5.45717 10.5785L5.53802 10.4943H6.85515H8.17228L8.25313 10.5785Z" fill="white" fill-opacity="0.75"/>
<path d="M11.3701 9.736C10.7772 9.86398 10.1877 10.3253 9.92499 10.8709C9.60834 11.5242 9.60834 12.1574 9.92499 12.8107C10.2652 13.5179 11.04 13.9961 11.8417 13.9961C12.6401 13.9961 13.3947 13.528 13.7551 12.8174C14.0886 12.1506 14.0718 11.3929 13.7046 10.7631C13.2363 9.96164 12.2864 9.54068 11.3701 9.736ZM12.027 10.5779C12.1079 10.6554 12.1112 10.6756 12.1112 11.1167V11.5714H12.566C13.0073 11.5714 13.0275 11.5747 13.105 11.6556C13.2161 11.7633 13.2161 11.9182 13.105 12.026C13.0275 12.1068 13.0073 12.1102 12.566 12.1102H12.1112V12.5648C12.1112 13.006 12.1079 13.0262 12.027 13.1037C11.9192 13.2148 11.7643 13.2148 11.6565 13.1037C11.5756 13.0262 11.5722 13.006 11.5722 12.5648V12.1102H11.1175C10.6762 12.1102 10.656 12.1068 10.5785 12.026C10.5246 11.9755 10.4943 11.9048 10.4943 11.8408C10.4943 11.7768 10.5246 11.7061 10.5785 11.6556C10.656 11.5747 10.6762 11.5714 11.1175 11.5714H11.5722V11.1167C11.5722 10.6756 11.5756 10.6554 11.6565 10.5779C11.707 10.524 11.7777 10.4937 11.8417 10.4937C11.9057 10.4937 11.9765 10.524 12.027 10.5779Z" fill="white" fill-opacity="0.75"/>
</svg>
