<svg width="16" height="16" viewBox="0 0 16 16" fill="none" xmlns="http://www.w3.org/2000/svg">
<path d="M7.50337 0.035293C6.62351 0.139861 5.72132 0.562315 5.06477 1.17717C3.38991 2.74569 3.38991 5.25532 5.06477 6.83221C5.38635 7.13336 5.89104 7.47217 6.24387 7.61856C6.3466 7.66039 6.43146 7.71058 6.43146 7.72731C6.43146 7.74404 6.35106 7.76914 6.25281 7.78587C5.9759 7.8277 5.25236 8.05356 4.80126 8.2376C1.91157 9.42968 0 12.1735 0 15.1349V15.5908H5.39081H10.7816L10.5985 15.4151C9.62932 14.4657 9.27648 13.0812 9.69631 11.8557C10.1697 10.4837 11.4426 9.51751 12.9567 9.3753L13.2738 9.34602L13.1443 9.24982C12.3895 8.66424 11.1077 8.06193 10.1251 7.83188C9.97322 7.79423 9.8169 7.75659 9.78117 7.74404C9.74098 7.73149 9.8303 7.66457 10.0268 7.56837C10.4913 7.33832 10.7504 7.15846 11.1032 6.83221C12.7736 5.26369 12.7736 2.74569 11.1032 1.17717C10.1519 0.286256 8.84772 -0.127833 7.50337 0.035293Z" fill="white"/>
<path d="M12.7075 10.1399C11.7824 10.2261 10.9408 10.7347 10.4394 11.5131C9.86619 12.4018 9.83206 13.5533 10.3511 14.473C10.5865 14.8909 10.9243 15.2491 11.341 15.5212C11.6211 15.7038 12.0472 15.8783 12.372 15.9414C12.6239 15.9908 12.7193 16 12.9958 16C13.2736 16 13.3878 15.9885 13.622 15.9414C14.6578 15.7302 15.5229 14.9747 15.856 13.9873C15.9631 13.6704 16.0031 13.4236 16.0031 13.0723C16.0031 12.7749 15.9831 12.6096 15.9148 12.3478C15.8571 12.1262 15.8054 11.9884 15.6971 11.7749C15.5523 11.4867 15.3887 11.2605 15.1568 11.0263C14.9097 10.776 14.666 10.6015 14.3435 10.4419C13.8362 10.1928 13.2713 10.0883 12.7075 10.1399ZM12.3155 12.2594L12.9958 12.923L13.6773 12.2582L14.3588 11.5935L14.4035 11.6004C14.46 11.6095 14.4895 11.6383 14.4989 11.6934L14.5059 11.737L13.8245 12.4018L13.143 13.0665L13.8233 13.7301C14.4471 14.3387 14.5024 14.3961 14.5024 14.4305C14.5024 14.4833 14.4483 14.5361 14.3941 14.5361C14.3588 14.5361 14.3 14.4822 13.6762 13.8737L12.9958 13.21L12.3144 13.8748L11.6329 14.5396L11.5882 14.5327C11.5317 14.5235 11.5022 14.4948 11.4928 14.4397L11.4858 14.3961L12.1672 13.7313L12.8487 13.0665L12.1684 12.4029C11.6341 11.8805 11.4893 11.7335 11.4893 11.7117C11.4893 11.6474 11.5411 11.5969 11.607 11.5969C11.6293 11.5969 11.78 11.7381 12.3155 12.2594Z" fill="white"/>
</svg>
